<svg xmlns="http://www.w3.org/2000/svg" xmlns:xlink="http://www.w3.org/1999/xlink">
  <symbol viewBox="0 0 14 12" id="icon-arrow-full" xmlns="http://www.w3.org/2000/svg">
    <path d="M12.813 5.794H1.563m6.712-4.518s4.537 2.446 4.537 4.517c0 2.073-4.537 4.52-4.537 4.52" />
  </symbol>
  <symbol viewBox="0 0 8 12" id="icon-arrow-simple" xmlns="http://www.w3.org/2000/svg">
    <path d="M1.375.75S6.625 3.858 6.625 6c0 2.141-5.25 5.25-5.25 5.25" />
  </symbol>
  <symbol viewBox="0 0 25 24" id="icon-cart" xmlns="http://www.w3.org/2000/svg">
    <path d="M17.157 20.25H9.892a5.631 5.631 0 0 1-5.625-5.625V8.86A8.529 8.529 0 0 0 .423 1.72.937.937 0 1 1 1.455.155 10.42 10.42 0 0 1 4.74 3.632c.172.193 1.561 1.665 3.838 1.665h10.796c2.945-.055 5.25 2.9 4.48 5.744l-1.242 4.953a5.618 5.618 0 0 1-5.456 4.256ZM5.905 6.642c.156.72.237 1.463.237 2.217v5.766a3.754 3.754 0 0 0 3.75 3.75h7.265a3.745 3.745 0 0 0 3.637-2.837l1.243-4.954c.457-1.689-.913-3.445-2.662-3.412H8.579a6.99 6.99 0 0 1-2.674-.53Zm3.518 16.186c0-.647-.525-1.172-1.172-1.172-1.555.062-1.554 2.283 0 2.344.647 0 1.172-.525 1.172-1.172Zm9.328 0c0-.647-.525-1.172-1.172-1.172-1.555.062-1.553 2.283 0 2.344.647 0 1.172-.525 1.172-1.172Zm1.561-12.844a.938.938 0 0 0-.937-.937H8.955c-1.245.05-1.244 1.826 0 1.875h10.42c.517 0 .937-.42.937-.938Z" />
  </symbol>
  <symbol viewBox="0 0 22 20" id="icon-cash" xmlns="http://www.w3.org/2000/svg">
    <path d="M20.171 12.675h-3.886a2.563 2.563 0 0 1 0-5.126h3.856m-3.42 2.504h-.297M6.606 6.144h4.06" />
    <path clip-rule="evenodd" d="M1.714 10.253c0-6.405 2.325-8.539 9.3-8.539 6.976 0 9.3 2.134 9.3 8.54 0 6.403-2.324 8.538-9.3 8.538-6.975 0-9.3-2.135-9.3-8.539Z" />
  </symbol>
  <symbol viewBox="0 0 12 12" id="icon-cross" xmlns="http://www.w3.org/2000/svg">
    <path fill-rule="evenodd" clip-rule="evenodd" d="M.17.17a.58.58 0 0 1 .821 0L6 5.18 11.009.17a.58.58 0 1 1 .82.821L6.822 6l5.009 5.009a.58.58 0 1 1-.821.82L6 6.822.991 11.83a.58.58 0 1 1-.82-.821L5.178 6 .17.991a.58.58 0 0 1 0-.82Z" />
  </symbol>
  <symbol viewBox="0 0 19 21" id="icon-delete" xmlns="http://www.w3.org/2000/svg">
    <path d="M15.89 8.554c0 8.02 1.154 11.644-6.61 11.644-7.765 0-6.587-3.625-6.587-11.644M17.365 5.48H1.215m11.5 0s.528-3.766-3.426-3.766c-3.953 0-3.425 3.766-3.425 3.766" />
  </symbol>
  <symbol viewBox="0 0 16 16" id="icon-download" xmlns="http://www.w3.org/2000/svg">
    <path d="M7.91 10.093v-9.03m2.186 6.835L7.91 10.094 5.722 7.898" />
    <path d="M11.277 4.444c2.685.248 3.66 1.253 3.66 5.25 0 5.325-1.733 5.325-6.937 5.325-5.206 0-6.938 0-6.938-5.325 0-3.997.976-5.002 3.66-5.25" />
  </symbol>
  <symbol viewBox="0 0 24 24" id="icon-eye-closed" xmlns="http://www.w3.org/2000/svg">
    <path d="M20 14.834C21.308 13.332 22 12 22 12s-3.636-7-10-7a8.595 8.595 0 0 0-2 .236M12 9a2.995 2.995 0 0 1 3 3M3 3l18 18m-9-6a2.997 2.997 0 0 1-2.959-2.5M4.147 9a17.09 17.09 0 0 0-.828 1C2.453 11.128 2 12 2 12s3.636 7 10 7c.341 0 .675-.02 1-.058" />
  </symbol>
  <symbol viewBox="0 0 24 24" id="icon-eye-open" xmlns="http://www.w3.org/2000/svg">
    <path d="M12 5C5.636 5 2 12 2 12s3.636 7 10 7 10-7 10-7-3.636-7-10-7Z" />
    <path d="M12 15a3 3 0 1 0 0-6 3 3 0 0 0 0 6Z" />
  </symbol>
  <symbol viewBox="0 0 8 16" id="icon-facebook" xmlns="http://www.w3.org/2000/svg">
    <path d="M2 5.333H0V8h2v8h3.333V8h2.4L8 5.333H5.333V4.2c0-.6.134-.867.734-.867H8V0H5.467C3.067 0 2 1.067 2 3.067v2.266Z"  />
  </symbol>
  <symbol viewBox="0 0 20 18" id="icon-favorite" xmlns="http://www.w3.org/2000/svg">
    <path d="M10 17.887c-.285 0-.56-.103-.773-.29-.808-.707-1.587-1.37-2.274-1.956l-.004-.003c-2.015-1.717-3.755-3.2-4.965-4.66C.63 9.343 0 7.795 0 6.103c0-1.643.564-3.16 1.587-4.269a5.378 5.378 0 0 1 4-1.741A5.03 5.03 0 0 1 8.73 1.179c.47.363.895.807 1.27 1.326a6.43 6.43 0 0 1 1.27-1.326A5.03 5.03 0 0 1 14.414.094c1.544 0 2.965.618 4 1.741C19.438 2.945 20 4.461 20 6.105c0 1.69-.63 3.24-1.983 4.872-1.211 1.46-2.95 2.944-4.965 4.66-.689.587-1.47 1.252-2.279 1.96-.214.187-.488.29-.773.29ZM5.587 1.265a4.22 4.22 0 0 0-3.14 1.364c-.822.893-1.276 2.127-1.276 3.475 0 1.423.53 2.695 1.715 4.126 1.145 1.382 2.85 2.835 4.823 4.516l.004.003c.69.588 1.471 1.255 2.285 1.966.82-.713 1.602-1.38 2.294-1.97 1.973-1.68 3.677-3.133 4.823-4.515 1.185-1.43 1.714-2.703 1.714-4.126 0-1.348-.454-2.582-1.277-3.475a4.22 4.22 0 0 0-3.139-1.364c-.889 0-1.705.283-2.426.84-.642.497-1.09 1.125-1.352 1.564A.734.734 0 0 1 10 4.03a.734.734 0 0 1-.635-.36c-.262-.44-.71-1.068-1.352-1.565a3.885 3.885 0 0 0-2.426-.84Z" />
  </symbol>
  <symbol viewBox="0 0 17 17" id="icon-filter-mob" xmlns="http://www.w3.org/2000/svg">
    <path d="M7.214 13.393H1.281" />
    <path clip-rule="evenodd" d="M10.938 13.393c0 1.872.624 2.495 2.494 2.495 1.871 0 2.495-.623 2.495-2.495 0-1.871-.624-2.495-2.495-2.495-1.87 0-2.495.624-2.495 2.495Z" />
    <path d="M9.995 3.778h5.932" />
    <path clip-rule="evenodd" d="M6.272 3.777c0-1.871-.624-2.495-2.495-2.495-1.872 0-2.496.624-2.496 2.495s.624 2.495 2.496 2.495c1.87 0 2.495-.624 2.495-2.495Z" />
  </symbol>
  <symbol viewBox="0 0 20 20" id="icon-google" xmlns="http://www.w3.org/2000/svg">
    <path d="M16.4336 17.6055C14.6992 19.0703 12.4493 20 10 20C6.35547 20 3.15621 17.9922 1.42188 15.0625L2.07117 12.0695L4.94922 11.5352C5.61719 13.6914 7.63278 15.2734 10 15.2734C11.1484 15.2734 12.2148 14.9102 13.0938 14.2656L15.8594 14.6875L16.4336 17.6055Z" fill="#59C36A" />
   <path d="M16.4336 17.6055L15.8594 14.6875L13.0937 14.2656C12.2148 14.9102 11.1484 15.2734 10 15.2734V20C12.4493 20 14.6992 19.0703 16.4336 17.6055Z" fill="#00A66C" />
   <path d="M4.72656 10C4.72656 10.539 4.8086 11.0546 4.94922 11.5352L1.42188 15.0625C0.542969 13.5859 0 11.8515 0 10C0 8.1484 0.542969 6.41406 1.42188 4.9375L4.25285 5.42473L4.94922 8.46484C4.8086 8.94527 4.72656 9.4609 4.72656 10Z" fill="#FFDA2D" />
   <path d="M20 10C20 13.0468 18.5899 15.7773 16.4336 17.6055L13.0938 14.2656C13.7734 13.7734 14.3477 13.1171 14.7227 12.3437H10C9.67184 12.3437 9.41406 12.0859 9.41406 11.7578V8.24219C9.41406 7.91402 9.67184 7.65625 10 7.65625H19.25C19.5312 7.65625 19.7773 7.85543 19.8242 8.13668C19.9414 8.74609 20 9.37887 20 10Z" fill="#4086F4" />
   <path d="M14.7227 12.3437C14.3477 13.1171 13.7734 13.7734 13.0938 14.2656L16.4336 17.6055C18.5899 15.7773 20 13.0469 20 10C20 9.37887 19.9414 8.74609 19.8242 8.13668C19.7773 7.85543 19.5312 7.65625 19.25 7.65625H10V12.3437H14.7227Z" fill="#4175DF" />
   <path d="M16.5977 2.79293C16.6094 2.95699 16.5391 3.10937 16.4336 3.22652L13.9258 5.72262C13.7266 5.93355 13.3985 5.95699 13.1641 5.78121C12.2382 5.08984 11.1484 4.72656 10 4.72656C7.63278 4.72656 5.61719 6.30855 4.94922 8.46484L1.42188 4.9375C3.15621 2.00781 6.35547 0 10 0C12.332 0 14.6055 0.859375 16.3867 2.35934C16.5156 2.46484 16.5859 2.62887 16.5977 2.79293Z" fill="#FF641A" />
   <path d="M13.1641 5.78121C13.3984 5.95703 13.7265 5.93355 13.9257 5.72262L16.4336 3.22652C16.5391 3.10938 16.6094 2.95703 16.5976 2.79293C16.5859 2.62883 16.5156 2.46484 16.3867 2.35934C14.6055 0.859375 12.332 0 10 0V4.72656C11.1484 4.72656 12.2382 5.08984 13.1641 5.78121Z" fill="#F03800" />
  </symbol>
  <symbol viewBox="0 0 27 24" id="icon-group-mob" xmlns="http://www.w3.org/2000/svg">
    <path d="m13.382 12.892-12.29-.001c-.13 0-.265.004-.39-.024a.898.898 0 0 1-.696-.974.9.9 0 0 1 .907-.784c1.07-.006 2.142-.003 3.213-.003l21.593.003c.139 0 .282-.004.416.027.44.104.73.52.683.956a.894.894 0 0 1-.893.797c-1.211.008-2.421.004-3.632.004h-8.91l-.001-.002ZM10.555 24c-1.35-.203-2.736-.279-4.044-.635-2.746-.748-4.316-2.64-4.767-5.438-.167-1.035-.27-2.08-.389-3.121-.072-.63.228-1.043.777-1.11.544-.068.944.286 1.004.832.13 1.18.22 2.37.443 3.533.402 2.102 2.123 3.568 4.257 3.755 1.01.089 2.018.201 3.024.318.735.085 1.074.9.635 1.497-.19.259-.415.332-.94.369ZM25.446 9.398c-.016.137-.014.28-.051.41-.087.31-.394.57-.653.575-.442.009-.942-.319-1.044-.733-.073-.294-.076-.606-.116-.91-.125-.956-.185-1.926-.394-2.864-.428-1.92-1.655-3.139-3.574-3.554-1.14-.246-2.317-.322-3.478-.475-.129-.017-.26-.023-.386-.055a.848.848 0 0 1-.639-.922c.059-.462.416-.816.862-.784 1.531.11 3.07.22 4.539.69 2.351.754 3.833 2.382 4.393 4.764.296 1.259.397 2.563.585 3.847l-.044.011Zm-.024 5.482c-.123 1.287-.213 2.7-.605 4.064-.74 2.57-2.92 4.345-5.58 4.605-1.082.106-2.159.262-3.238.395-.382.048-.798-.321-.878-.78-.08-.458.208-.909.662-.97.543-.074 1.095-.088 1.638-.16.901-.12 1.836-.154 2.692-.426 1.857-.588 2.894-1.944 3.166-3.863.145-1.02.252-2.045.355-3.07.06-.593.446-1.006.967-.977.503.03.85.476.822 1.183ZM1.33 9.275c.197-1.32.29-2.667.614-3.956C2.6 2.711 4.35 1.119 6.96.533 8.134.269 9.347.178 10.544.017a1.56 1.56 0 0 1 .554.016c.413.098.656.477.617.907-.042.451-.347.75-.787.8-1.08.12-2.164.23-3.242.383-2.276.32-3.853 1.9-4.163 4.162-.148 1.084-.266 2.174-.394 3.261a.868.868 0 0 1-.887.76.866.866 0 0 1-.852-.798c-.004-.073 0-.148 0-.222l-.06-.01Z" />
  </symbol>
  <symbol viewBox="0 0 16 18" id="icon-home-mob" xmlns="http://www.w3.org/2000/svg">
    <path d="M5.612 16.311v-2.548c0-.65.531-1.178 1.186-1.178h2.396c.314 0 .616.124.838.345.223.221.348.52.348.833v2.548c-.002.27.105.53.297.723.192.191.453.3.725.3h1.634a2.883 2.883 0 0 0 2.036-.833c.54-.535.844-1.262.844-2.02V7.223a2.06 2.06 0 0 0-.746-1.585L9.611 1.23a2.581 2.581 0 0 0-3.29.06L.889 5.636a2.062 2.062 0 0 0-.806 1.585v7.252a2.87 2.87 0 0 0 2.88 2.86H4.56c.566 0 1.026-.454 1.03-1.015l.022-.008Z" />
  </symbol>
  <symbol viewBox="0 0 16 16" id="icon-instagram" xmlns="http://www.w3.org/2000/svg">
    <path d="M8 1.467c2.133 0 2.4 0 3.267.066 2.2.067 3.2 1.134 3.266 3.267.067.867.067 1.067.067 3.2s0 2.4-.067 3.2c-.066 2.133-1.133 3.2-3.266 3.267-.867.066-1.067.066-3.267.066-2.133 0-2.4 0-3.2-.066-2.2-.067-3.2-1.134-3.267-3.267-.066-.867-.066-1.067-.066-3.2s0-2.4.066-3.2C1.6 2.667 2.667 1.6 4.8 1.533c.8-.066 1.067-.066 3.2-.066ZM8 0C5.8 0 5.533 0 4.733.067 1.8.2.2 1.8.067 4.733 0 5.533 0 5.8 0 8s0 2.467.067 3.267C.2 14.2 1.8 15.8 4.733 15.933 5.533 16 5.8 16 8 16s2.467 0 3.267-.067C14.2 15.8 15.8 14.2 15.933 11.267 16 10.467 16 10.2 16 8s0-2.467-.067-3.267C15.8 1.8 14.2.2 11.267.067 10.467 0 10.2 0 8 0Zm0 3.867C5.733 3.867 3.867 5.733 3.867 8S5.733 12.133 8 12.133 12.133 10.267 12.133 8 10.267 3.867 8 3.867Zm0 6.8A2.675 2.675 0 0 1 5.333 8c0-1.467 1.2-2.667 2.667-2.667 1.467 0 2.667 1.2 2.667 2.667 0 1.467-1.2 2.667-2.667 2.667ZM12.267 2.8c-.534 0-.934.4-.934.933 0 .534.4.934.934.934.533 0 .933-.4.933-.934 0-.533-.4-.933-.933-.933Z"  />
  </symbol>
  <symbol viewBox="0 0 16 16" id="icon-linkedin" xmlns="http://www.w3.org/2000/svg">
    <path d="M3.333 1.667a1.65 1.65 0 0 1-1.666 1.666A1.65 1.65 0 0 1 0 1.667 1.65 1.65 0 0 1 1.667 0a1.65 1.65 0 0 1 1.666 1.667Zm0 3H0v10.666h3.333V4.667Zm5.334 0H5.333v10.666h3.334v-5.6c0-3.133 4-3.4 4 0v5.6H16V8.6c0-5.267-5.933-5.067-7.333-2.467V4.667Z"  />
  </symbol>
  <symbol viewBox="0 0 14 18" id="icon-location" xmlns="http://www.w3.org/2000/svg">
    <path clip-rule="evenodd" d="M9.092 7.925a2.083 2.083 0 1 0-4.167 0 2.083 2.083 0 0 0 4.167 0Z" />
    <path clip-rule="evenodd" d="M7 16.5C4.585 16.5.75 12.299.75 7.832.75 4.335 3.548 1.5 7 1.5s6.25 2.835 6.25 6.332C13.25 12.3 9.415 16.5 7 16.5Z" />
  </symbol>
  <symbol viewBox="0 0 18 18" id="icon-login" xmlns="http://www.w3.org/2000/svg">
    <path d="M17.16 9.1H7.126m7.595-2.43 2.44 2.43-2.44 2.43m-2.087-6.172c-.275-2.983-1.392-4.066-5.833-4.066C.883 1.292.883 3.217.883 9s0 7.708 5.918 7.708c4.441 0 5.558-1.083 5.833-4.066" />
  </symbol>
  <symbol viewBox="0 0 18 18" id="icon-mail" xmlns="http://www.w3.org/2000/svg">
    <path d="M13.62 6.516s-2.674 3.21-4.63 3.21c-1.957 0-4.662-3.21-4.662-3.21" />
    <path clip-rule="evenodd" d="M1.043 8.974c0-5.698 1.985-7.597 7.937-7.597s7.936 1.899 7.936 7.597-1.984 7.597-7.936 7.597-7.937-1.9-7.937-7.597Z" />
  </symbol>
  <symbol viewBox="0 0 29 18" id="icon-mastercard-mob" xmlns="http://www.w3.org/2000/svg">
    <path fill-rule="evenodd" clip-rule="evenodd" d="m20.304 17.358.448-.013.444-.032.432-.056.431-.076.418-.096.413-.118.404-.136.396-.155.386-.177.375-.19.362-.21.354-.226.34-.244.328-.257.316-.271.302-.29.29-.303.272-.316.257-.327.243-.34.226-.354.211-.363.19-.375.176-.386.155-.395.137-.405.117-.412.096-.419.076-.43.056-.433.033-.443.012-.448-.012-.445-.033-.439-.056-.432-.076-.425-.096-.419-.117-.41-.137-.403-.155-.392-.177-.385-.189-.375-.21-.36-.227-.353-.243-.341-.257-.324-.272-.316-.29-.302-.302-.287-.316-.271-.327-.26-.341-.241-.354-.226-.362-.208-.375-.19-.386-.176-.396-.155-.404-.138-.413-.116-.418-.098L21.628.1l-.432-.056-.444-.03L20.304 0l-.445.012-.441.031-.433.056-.428.076-.418.098-.412.116-.402.138-.395.155-.385.175-.37.19-.364.209-.35.226-.34.242-.329.259-.313.27-.3.288-.289.302-.271.316-.257.324-.24.341-.227.353-.208.36-.192.375-.173.385-.155.392-.135.403-.117.41-.097.419-.076.425-.056.432-.031.439-.012.445.012.448.031.443.056.432.076.431.097.419.117.412.134.405.155.395.174.386.192.375.208.363.226.353.24.341.258.327.271.316.288.303.301.29.313.27.329.258.34.244.35.226.364.21.37.19.385.177.395.155.402.136.412.118.418.096.428.076.433.056.441.032.445.013Z" />
    <path fill-rule="evenodd" clip-rule="evenodd" d="m8.694 17.358.445-.013.442-.032.434-.056.428-.076.418-.096.413-.118.401-.136.395-.155.383-.177.372-.19.363-.21.352-.226.34-.244.326-.257.315-.271.3-.29.287-.303.273-.316.258-.327.24-.34.225-.354.207-.363.194-.375.172-.386.157-.395.133-.405.118-.412.096-.419.076-.43.056-.433.032-.443.013-.448-.013-.445-.032-.439-.056-.432-.076-.425-.096-.419-.118-.41-.133-.403-.157-.392-.172-.385-.194-.375-.207-.36-.225-.353-.24-.341-.258-.324-.273-.316-.286-.302-.301-.287-.315-.271-.327-.26-.34-.241-.351-.226-.363-.208-.372-.19-.383-.176-.395-.155-.401-.138-.413-.116-.418-.098L10.015.1 9.58.043l-.442-.03L8.694 0l-.448.012-.441.031L7.372.1l-.43.076-.42.098L6.11.39l-.404.138-.396.155-.385.175-.376.19-.362.209-.355.226-.34.242-.327.259-.316.27-.302.288-.29.302-.273.316-.257.324-.242.341-.226.353-.211.36-.19.375-.176.385-.155.392-.138.403-.116.41-.098.419-.076.425-.056.432-.03.439L0 8.662l.012.448.031.443.056.432.076.431.098.419.116.412.138.405.155.395.175.386.19.375.212.363.226.353.242.341.257.327.273.316.29.303.302.29.316.27.327.258.34.244.355.226.362.21.376.19.385.177.396.155.404.136.413.118.418.096.431.076.433.056.441.032.448.013Z" />
    <path fill-rule="evenodd" clip-rule="evenodd" d="M13.484 3.328h4.612v-.471h-4.213l-.399.471Zm-.691 1.049h5.303v-.472h-5.024l-.279.472Zm-.515 1.045h5.818v-.471h-5.613l-.205.471Zm-.355 1.048h6.172v-.471H12.07l-.147.47Zm.207 5.064h5.98v-.471h-6.128l.148.471Zm.442 1.048h5.538v-.471h-5.758l.22.47Zm.618 1.046h4.919v-.473h-5.215l.297.473Zm.857 1.048h4.062v-.474h-4.476l.414.474Zm-2.332-7.161h6.38v-.472h-6.289l-.091.472Zm3.887 2.975h2.434v-.472h-2.345l-.089.471Zm.195-1.046h2.24V8.97h-2.152l-.088.474Zm-4.243-.474h.632v.474h-.603l-.03-.474ZM10.374 8.398l-.04-.001-.042-.007-.037-.006-.039-.006-.034-.006-.039-.005-.038-.006-.04-.006-.04-.006-.049-.004-.053-.001-.054-.003h-.062l-.068.003-.076.005-.084.006-.059.01-.055.007-.05.018-.045.018-.04.02-.04.023-.027.03-.026.026-.019.032-.014.033-.006.035v.035l.01.038.01.038.023.038.03.037.059.056.07.045.082.037.088.033.093.03.098.032.096.034.093.039.088.05.082.061.073.073.062.09.047.112.029.132.01.158-.01.184-.02.138-.036.12-.046.111-.06.096-.066.085-.077.073-.081.065-.091.056-.093.043-.098.04-.1.029-.102.023-.099.017-.097.01-.097.004-.09.003h-.127l-.116-.003h-.102l-.098-.002-.087-.003-.079-.006-.07-.006-.068-.01-.062-.004-.055-.012-.055-.01-.05-.014-.05-.012-.047-.017-.046-.017-.05-.019.132-.646.026.006.033.008.04.012.05.013.052.01.06.013.063.014.071.012.073.011.076.013.079.009.082.008.085.003.084.003h.085l.086-.003.085-.017.066-.024.053-.032.042-.042.03-.04.023-.047.014-.046.012-.045.005-.086-.027-.072-.05-.06-.072-.049-.088-.043-.103-.044-.113-.042-.115-.046-.116-.053-.112-.062-.102-.076-.094-.09-.073-.111-.053-.132-.026-.158.003-.188.014-.114.021-.107.028-.101.036-.093.047-.088.052-.076.062-.073.073-.065.085-.055.093-.048.106-.043.118-.033.131-.026.143-.02.158-.013.174-.001h.108l.1.001.09.004.081.003.075.006.066.006.06.006.052.005.05.006.04.01.039.006.035.004.028.006.027.004.026.006.025.003-.15.66Z" />
    <path d="m10.374 8.398-.04-.001-.042-.007-.037-.006-.039-.006-.034-.006-.039-.005-.038-.006-.04-.006-.04-.006-.049-.004-.053-.001-.054-.003h-.062l-.068.003-.076.005-.084.006-.059.01-.055.007-.05.018-.045.018-.04.02-.04.023-.027.03-.026.026-.019.032-.014.033-.006.035v.035l.01.038.01.038.023.038.03.037.059.056.07.045.082.037.088.033.093.03.098.032.096.034.093.039.088.05.082.061.073.073.062.09.047.112.029.132.01.158-.01.184-.02.138-.036.12-.046.111-.06.096-.066.085-.077.073-.081.065-.091.056-.093.043-.098.04-.1.029-.102.023-.099.017-.097.01-.097.004-.09.003h-.127l-.116-.003h-.102l-.098-.002-.087-.003-.079-.006-.07-.006-.068-.01-.062-.004-.055-.012-.055-.01-.05-.014-.05-.012-.047-.017-.046-.017-.05-.019.132-.646.026.006.033.008.04.012.05.013.052.01.06.013.063.014.071.012.073.011.076.013.079.009.082.008.085.003.084.003h.085l.086-.003.085-.017.066-.024.053-.032.042-.042.03-.04.023-.047.014-.046.012-.045.005-.086-.027-.072-.05-.06-.072-.049-.088-.043-.103-.044-.113-.042-.115-.046-.116-.053-.112-.062-.102-.076-.094-.09-.073-.111-.053-.132-.026-.158.003-.188.014-.114.021-.107.028-.101.036-.093.047-.088.052-.076.062-.073.073-.065.085-.055.093-.048.106-.043.118-.033.131-.026.143-.02.158-.013.174-.001h.108l.1.001.09.004.081.003.075.006.066.006.06.006.052.005.05.006.04.01.039.006.035.004.028.006.027.004.026.006.025.003-.15.66Z" />
    <path fill-rule="evenodd" clip-rule="evenodd" d="M11.069 7.014h.81l-.119.708h.488l-.105.662-.515-.014-.282 1.633-.003.058.016.05.03.039.036.032.053.02.059.018.065.012.07.006.063-.003.06-.006.052-.01.046-.01.04-.013.026-.009.017-.005.006-.003-.102.544-.02.014-.02.013-.022.012-.02.01-.02.01-.024.008-.026.01-.027.008-.03.008-.029.006-.035.007-.034.006-.04.006-.043.005-.046.006-.051.006h-.222l-.118-.01-.102-.01-.093-.019-.08-.02-.067-.026-.055-.03-.05-.034-.038-.038-.03-.04-.02-.052-.015-.05-.008-.055-.003-.06v-.066l.008-.067.01-.072.559-3.195Z" />
    <path d="M11.069 7.014h.81l-.119.708h.488l-.105.662-.515-.014-.282 1.633-.003.058.016.05.03.039.036.032.053.02.059.018.065.012.07.006.063-.003.06-.006.052-.01.046-.01.04-.013.026-.009.017-.005.006-.003-.102.544-.02.014-.02.013-.022.012-.02.01-.02.01-.024.008-.026.01-.027.008-.03.008-.029.006-.035.007-.034.006-.04.006-.043.005-.046.006-.051.006h-.222l-.118-.01-.102-.01-.093-.019-.08-.02-.067-.026-.055-.03-.05-.034-.038-.038-.03-.04-.02-.052-.015-.05-.008-.055-.003-.06v-.066l.008-.067.01-.072.559-3.195Z" />
    <path fill-rule="evenodd" clip-rule="evenodd" d="m12.895 9.488-.008.05-.003.052.006.056.011.056.02.056.024.052.032.056.036.05.04.05.045.043.047.045.052.034.053.032.059.027.057.02.06.012.075.011.075.01.075.009.076.004.076.003h.08l.075-.003.08-.004.079-.013.079-.014.082-.018.079-.027.082-.032.084-.034.082-.047.085-.05-.116.72-.048.023-.047.023-.046.019-.044.017-.045.014-.046.015-.047.011-.05.01-.052.009-.059.006-.062.005-.067.006-.075.003h-.08l-.09.003h-.097l-.144-.003-.146-.014-.147-.022-.146-.034-.144-.045-.136-.056-.132-.072-.124-.086-.113-.099-.1-.12-.085-.134-.071-.155-.05-.174-.03-.195-.01-.217.014-.24.012-.093.017-.109.024-.114.032-.123.044-.125.052-.126.069-.13.082-.123.093-.116.114-.111.129-.1.146-.088.17-.073.19-.053.212-.035.237-.011.113.001.12.013.12.02.121.03.116.043.115.053.106.07.096.083.088.1.073.116.059.134.04.155.023.177.003.198-.02.224-.043.245-.016.178h-2.134l.135-.577h1.282l.006-.073-.003-.07-.005-.064-.012-.058-.02-.056-.02-.05-.03-.044-.03-.04-.035-.036-.037-.03-.045-.026-.044-.023-.046-.017-.047-.013-.05-.007-.053-.007-.055.004-.053.007-.05.013-.05.017-.05.023-.043.026-.044.033-.038.036-.04.04-.033.045-.033.046-.026.05-.027.053-.02.058-.018.058-.011.062-.118.606Z" />
    <path d="m12.895 9.488-.008.05-.003.052.006.056.011.056.02.056.024.052.032.056.036.05.04.05.045.043.047.045.052.034.053.032.059.027.057.02.06.012.075.011.075.01.075.009.076.004.076.003h.08l.075-.003.08-.004.079-.013.079-.014.082-.018.079-.027.082-.032.084-.034.082-.047.085-.05-.116.72-.048.023-.047.023-.046.019-.044.017-.045.014-.046.015-.047.011-.05.01-.052.009-.059.006-.062.005-.067.006-.075.003h-.08l-.09.003h-.097l-.144-.003-.146-.014-.147-.022-.146-.034-.144-.045-.136-.056-.132-.072-.124-.086-.113-.099-.1-.12-.085-.134-.071-.155-.05-.174-.03-.195-.01-.217.014-.24.012-.093.017-.109.024-.114.032-.123.044-.125.052-.126.069-.13.082-.123.093-.116.114-.111.129-.1.146-.088.17-.073.19-.053.212-.035.237-.011.113.001.12.013.12.02.121.03.116.043.115.053.106.07.096.083.088.1.073.116.059.134.04.155.023.177.003.198-.02.224-.043.245-.016.178h-2.134l.135-.577h1.282l.006-.073-.003-.07-.005-.064-.012-.058-.02-.056-.02-.05-.03-.044-.03-.04-.035-.036-.037-.03-.045-.026-.044-.023-.046-.017-.047-.013-.05-.007-.053-.007-.055.004-.053.007-.05.013-.05.017-.05.023-.043.026-.044.033-.038.036-.04.04-.033.045-.033.046-.026.05-.027.053-.02.058-.018.058-.011.062-.118.606Z" />
    <path fill-rule="evenodd" clip-rule="evenodd" d="m19.878 7.9-.04-.023-.036-.017-.042-.02-.044-.02-.043-.019-.051-.017-.05-.017-.052-.018-.056-.014-.054-.013-.063-.01-.062-.01-.066-.006-.068-.006h-.216l-.077.006-.08.01-.08.013-.082.024-.082.032-.082.042-.083.053-.079.063-.076.076-.072.095-.072.108-.063.129-.062.146-.056.164-.047.187-.017.106-.012.102-.006.102.003.1.01.099.02.094.026.087.032.089.044.079.052.076.062.068.07.06.08.053.09.045.1.037.111.026.037.01.046.009.052.005.058.006.065.006h.141l.073-.006.076-.01.076-.013.072-.02.075-.024.073-.032.066-.04.062-.046.06-.052-.133.78-.018.016-.017.018-.023.02-.027.018-.032.024-.04.02-.049.02-.052.018-.067.02-.076.014-.088.013-.103.01-.114.007-.132.003-.149-.003-.164-.01-.134-.013-.134-.03-.135-.043-.135-.06-.129-.069-.124-.088-.116-.102-.109-.118-.096-.132-.082-.146-.07-.164-.052-.178-.036-.197-.012-.208.006-.228.032-.243.024-.12.026-.117.03-.113.029-.109.032-.102.038-.103.038-.097.04-.09.044-.092.045-.085.05-.08.052-.078.053-.073.059-.07.057-.065.062-.06.067-.059.068-.056.07-.05.073-.046.079-.045.079-.037.082-.036.085-.032.092-.03.09-.023.094-.02.1-.017.099-.016.105-.01.105-.007.112-.003.093.003.091.007.087.007.089.013.082.012.079.017.076.014.07.019.068.017.059.017.055.018.047.017.04.014.036.013.026.012.017.005-.145.812Z" />
    <path d="m19.878 7.9-.04-.023-.036-.017-.042-.02-.044-.02-.043-.019-.051-.017-.05-.017-.052-.018-.056-.014-.054-.013-.063-.01-.062-.01-.066-.006-.068-.006h-.216l-.077.006-.08.01-.08.013-.082.024-.082.032-.082.042-.083.053-.079.063-.076.076-.072.095-.072.108-.063.129-.062.146-.056.164-.047.187-.017.106-.012.102-.006.102.003.1.01.099.02.094.026.087.032.089.044.079.052.076.062.068.07.06.08.053.09.045.1.037.111.026.037.01.046.009.052.005.058.006.065.006h.141l.073-.006.076-.01.076-.013.072-.02.075-.024.073-.032.066-.04.062-.046.06-.052-.133.78-.018.016-.017.018-.023.02-.027.018-.032.024-.04.02-.049.02-.052.018-.067.02-.076.014-.088.013-.103.01-.114.007-.132.003-.149-.003-.164-.01-.134-.013-.134-.03-.135-.043-.135-.06-.129-.069-.124-.088-.116-.102-.109-.118-.096-.132-.082-.146-.07-.164-.052-.178-.036-.197-.012-.208.006-.228.032-.243.024-.12.026-.117.03-.113.029-.109.032-.102.038-.103.038-.097.04-.09.044-.092.045-.085.05-.08.052-.078.053-.073.059-.07.057-.065.062-.06.067-.059.068-.056.07-.05.073-.046.079-.045.079-.037.082-.036.085-.032.092-.03.09-.023.094-.02.1-.017.099-.016.105-.01.105-.007.112-.003.093.003.091.007.087.007.089.013.082.012.079.017.076.014.07.019.068.017.059.017.055.018.047.017.04.014.036.013.026.012.017.005-.145.812Z" />
    <path fill-rule="evenodd" clip-rule="evenodd" d="M27.084 10.858h-.81l.059-.325v-.03l-.047.06-.05.052-.05.046-.052.042-.053.037-.052.033-.053.026-.056.027-.056.02-.055.015-.056.014-.06.01-.056.009-.056.004-.06.004h-.058l-.152-.011-.141-.033-.129-.05-.116-.068-.105-.083-.095-.101-.082-.109-.07-.122-.059-.132-.046-.138-.033-.142-.023-.15-.008-.15.002-.151.015-.15.027-.15.043-.172.053-.164.062-.149.073-.14.076-.133.088-.116.09-.105.098-.098.102-.084.108-.074.11-.064.112-.05.118-.041.116-.026.118-.017.12-.007.085.003.082.01.076.014.07.02.067.025.06.026.057.031.053.033.047.035.044.037.037.04.036.036.03.04.026.036.023.036.017.036.206-1.15h.795l-.662 3.828Z" />
    <path d="M27.084 10.858h-.81l.059-.325v-.03l-.047.06-.05.052-.05.046-.052.042-.053.037-.052.033-.053.026-.056.027-.056.02-.055.015-.056.014-.06.01-.056.009-.056.004-.06.004h-.058l-.152-.011-.141-.033-.129-.05-.116-.068-.105-.083-.095-.101-.082-.109-.07-.122-.059-.132-.046-.138-.033-.142-.023-.15-.008-.15.002-.151.015-.15.027-.15.043-.172.053-.164.062-.149.073-.14.076-.133.088-.116.09-.105.098-.098.102-.084.108-.074.11-.064.112-.05.118-.041.116-.026.118-.017.12-.007.085.003.082.01.076.014.07.02.067.025.06.026.057.031.053.033.047.035.044.037.037.04.036.036.03.04.026.036.023.036.017.036.206-1.15h.795l-.662 3.828Z" />
    <path fill-rule="evenodd" clip-rule="evenodd" d="m25.759 10.15.082-.006.076-.018.07-.021.068-.031.06-.036.06-.043.055-.05.05-.053.043-.058.042-.066.037-.066.033-.07.03-.074.023-.076.02-.08.015-.078.014-.083.01-.083v-.08l-.004-.081-.009-.076-.01-.075-.021-.07-.023-.066-.03-.06-.035-.055-.04-.046-.043-.042-.05-.034-.052-.024-.056-.015-.062-.006-.079.006-.073.012-.066.024-.068.029-.058.037-.059.047-.05.05-.049.055-.045.065-.04.067-.039.071-.03.076-.03.08-.023.078-.025.085-.017.084-.014.129.004.14.022.145.037.136.06.121.075.096.096.066.118.023ZM7.78 10.209l-.117.65h-.738l.022-.122.014-.107.012-.082.011-.045-.04.048-.047.047-.055.043-.062.042-.07.04-.075.036-.076.034-.079.03-.083.026-.086.02-.085.019-.088.01-.084.007-.085.003-.082-.01-.08-.01-.102-.027-.094-.03-.08-.038-.075-.043-.064-.047-.059-.053-.046-.055-.042-.06-.034-.061-.03-.064-.023-.065-.018-.064-.011-.068-.01-.066-.006-.065v-.064l.01-.115.017-.108.03-.102.038-.1.046-.093.053-.085.062-.082.07-.073.073-.068.082-.06.085-.056.088-.047.093-.042.097-.032.1-.027.103-.017h.004l.016-.003.02-.003.032-.003.036-.005.04-.003.044-.006.05-.006.05-.006.05-.005.053-.003.046-.006.047-.003.043-.004.042-.003h.099l.07.003.065.004h.064l.052.003.042.003.03.003h.007l.007-.022.018-.053.014-.06.006-.056-.012-.065-.026-.057-.034-.053-.048-.045-.056-.037-.06-.026-.072-.019-.076-.005-.082-.003-.087-.003h-.091l-.093.003-.097.005-.094.01-.093.008-.092.011-.088.013-.084.014-.076.015-.07.014-.064.019-.053.017-.042.02-.032.017.209-.705.063-.027.065-.023.07-.02.07-.014.071-.016.076-.01.076-.013.08-.006.081-.006.084-.002.088-.003H6.9l.104.003.102.002.082.006.087.016.092.02.093.026.091.036.087.04.088.05.082.055.073.065.065.07.058.08.045.086.029.095.017.099v.111l-.017.117-.296 1.547Z" />
    <path d="m7.78 10.209-.117.65h-.738l.022-.122.014-.107.012-.082.011-.045-.04.048-.047.047-.055.043-.062.042-.07.04-.075.036-.076.034-.079.03-.083.026-.086.02-.085.019-.088.01-.084.007-.085.003-.082-.01-.08-.01-.102-.027-.094-.03-.08-.038-.075-.043-.064-.047-.059-.053-.046-.055-.042-.06-.034-.061-.03-.064-.023-.065-.018-.064-.011-.068-.01-.066-.006-.065v-.064l.01-.115.017-.108.03-.102.038-.1.046-.093.053-.085.062-.082.07-.073.073-.068.082-.06.085-.056.088-.047.093-.042.097-.032.1-.027.103-.017h.004l.016-.003.02-.003.032-.003.036-.005.04-.003.044-.006.05-.006.05-.006.05-.005.053-.003.046-.006.047-.003.043-.004.042-.003h.099l.07.003.065.004h.064l.052.003.042.003.03.003h.007l.007-.022.018-.053.014-.06.006-.056-.012-.065-.026-.057-.034-.053-.048-.045-.056-.037-.06-.026-.072-.019-.076-.005-.082-.003-.087-.003h-.091l-.093.003-.097.005-.094.01-.093.008-.092.011-.088.013-.084.014-.076.015-.07.014-.064.019-.053.017-.042.02-.032.017.209-.705.063-.027.065-.023.07-.02.07-.014.071-.016.076-.01.076-.013.08-.006.081-.006.084-.002.088-.003H6.9l.104.003.102.002.082.006.087.016.092.02.093.026.091.036.087.04.088.05.082.055.073.065.065.07.058.08.045.086.029.095.017.099v.111l-.017.117-.296 1.547Z" />
    <path fill-rule="evenodd" clip-rule="evenodd" d="m7.075 9.444-.003-.015-.012-.014-.017-.01-.03-.005-.032-.005-.037-.003h-.089l-.046.003-.05.005-.046.006-.048.006-.044.006-.04.008-.036.01-.032.008-.02.005-.024.01-.032.012-.033.014-.037.017-.039.022-.04.02-.039.023-.04.03-.039.029-.034.034-.033.036-.029.038-.02.04-.019.047-.007.048-.004.1.014.079.03.057.039.045.043.03.05.016.046.01.048.003.087-.003.079-.01.076-.01.068-.02.057-.02.056-.026.05-.026.045-.033.037-.029.036-.034.03-.033.022-.035.02-.034.02-.036.013-.033.01-.032.023-.084.02-.098.017-.093.015-.076ZM1.621 10.858H.826l.664-3.844h1.385l.132 2.28.956-2.28H5.41l-.68 3.844h-.796l.504-2.872h-.033l-1.19 2.872h-.9l-.005-.12-.02-.319-.027-.454-.03-.52-.029-.524-.026-.46-.02-.334-.007-.141h-.043l-.487 2.872Z" />
    <path d="M1.621 10.858H.826l.664-3.844h1.385l.132 2.28.956-2.28H5.41l-.68 3.844h-.796l.504-2.872h-.033l-1.19 2.872h-.9l-.005-.12-.02-.319-.027-.454-.03-.52-.029-.524-.026-.46-.02-.334-.007-.141h-.043l-.487 2.872Z" />
    <path fill-rule="evenodd" clip-rule="evenodd" d="m22.31 10.209-.119.65h-.735l.005-.122.003-.105v-.08l.006-.033-.037.043-.045.043-.053.042-.059.04-.06.04-.071.035-.073.034-.073.03-.079.023-.082.023-.082.016-.082.01-.084.007-.082.003-.08-.01-.079-.01-.105-.027-.094-.03-.083-.038-.076-.043-.063-.047-.056-.053-.046-.055-.042-.06-.034-.061-.027-.064-.023-.065-.015-.064-.011-.068-.01-.066-.006-.065v-.064l.006-.115.017-.108.027-.102.039-.1.043-.093.056-.085.062-.082.066-.073.076-.068.08-.06.085-.056.09-.047.091-.042.096-.032.098-.027.099-.017h.006l.014-.003.02-.003.03-.003.038-.005.04-.003.046-.006.046-.006.05-.006.053-.005.05-.003.049-.006.046-.003.042-.004.04-.003h.103l.071.003.067.004h.065l.054.003.048.003.026.003h.011l.006-.022.01-.053.008-.06.006-.056-.011-.065-.025-.057-.037-.053-.044-.045-.052-.037-.062-.026-.065-.019-.07-.005-.082-.003-.089-.003h-.09l-.094.003-.096.005-.093.01-.095.008-.09.011-.088.013-.085.014-.076.015-.07.014-.065.019-.053.017-.04.02-.033.017.205-.705.065-.027.067-.023.068-.02.07-.014.073-.016.074-.01.076-.013.079-.006.082-.006.084-.002.085-.003h.276l.1.003.098.002.083.006.088.016.09.02.094.026.09.036.092.04.087.05.082.055.073.065.068.07.059.08.043.086.033.095.02.099v.111l-.016.117-.307 1.547Z" />
    <path fill-rule="evenodd" clip-rule="evenodd" d="m22.19 10.878.017-.017.12-.65-.034-.005-.121.649.018-.017v.04l.014-.003.003-.014-.017.017Z" />
    <path fill-rule="evenodd" clip-rule="evenodd" d="m21.437 10.858.018.02h.735v-.04h-.735l.017.02h-.035l-.003.02h.021l-.018-.02Z" />
    <path fill-rule="evenodd" clip-rule="evenodd" d="m21.486 10.53-.027-.024-.012.047-.003.079v.105l-.006.121h.035l.006-.12.007-.106-.003-.08v-.022l-.027-.024.03.024Z" />
    <path fill-rule="evenodd" clip-rule="evenodd" d="m20.346 10.905.082.012.079.008.082-.003.084-.005.085-.012.082-.014.082-.024.082-.024.073-.028.076-.036.07-.036.062-.04.062-.042.053-.04.046-.046.039-.045-.03-.024-.038.045-.04.04-.053.04-.056.043-.062.035-.07.034-.071.036-.073.03-.076.023-.082.023-.082.014-.08.012-.083.007-.082.003-.08-.01-.075-.012-.006.036Zm-.708-.887.003.064.006.065.008.07.012.068.014.063.023.068.027.067.038.062.04.06.049.056.057.056.068.047.076.048.086.037.096.03.105.026.006-.036-.105-.026-.092-.028-.079-.039-.076-.04-.062-.048-.052-.05-.047-.056-.04-.056-.033-.06-.026-.062-.023-.06-.016-.066-.01-.066-.01-.065-.006-.065.003-.064h-.04Zm1.051-1.124-.103.017-.099.027-.097.032-.093.04-.092.047-.087.059-.079.062-.077.07-.07.072-.062.083-.057.088-.045.096-.038.1-.026.105-.017.111-.01.115h.041l.003-.115.019-.105.026-.1.037-.098.044-.092.052-.082.062-.082.066-.073.075-.064.08-.062.082-.052.09-.047.088-.042.096-.03.095-.027.096-.019v-.034Z" />
    <path fill-rule="evenodd" clip-rule="evenodd" d="M21.291 8.832h-.032l-.04.006-.042.004-.047.003-.05.004-.049.003-.053.007-.05.006-.046.006-.045.005-.04.003-.039.006-.03.003-.023.003-.01.003h-.006v.034h.006l.017-.003.017-.001.03-.003.038-.007.04-.003.045-.006.047-.006.05-.005.052-.006.05-.003.05-.006.046-.003.042-.003h.071v-.04Z" />
    <path fill-rule="evenodd" clip-rule="evenodd" d="m21.686 8.865.017-.016h-.01l-.027-.003-.048-.001-.054-.007h-.132l-.071-.006h-.07v.04h.141l.067.007h.119l.048.003.026.003h.011l.019-.014-.019.014.016.003.003-.017-.036-.006Z" />
    <path fill-rule="evenodd" clip-rule="evenodd" d="M21.716 8.677h-.003l-.003.056-.01.059-.007.053-.007.02.036.006.005-.022.01-.052.008-.064.008-.056h-.037Zm-.348-.29v.003l.067.004.062.017.059.026.05.036.04.04.035.05.023.052.013.062h.034l-.01-.068-.024-.064-.042-.055-.046-.047-.056-.042-.064-.026-.068-.017-.073-.01v.04Z" />
    <path fill-rule="evenodd" clip-rule="evenodd" d="m20.112 8.528.03.017.03-.015.036-.02.05-.017.065-.017.07-.016.076-.014.085-.015.085-.011.09-.012.095-.01.093-.008.096-.006h.273l.082.003v-.035l-.082-.003-.089-.005h-.09l-.094.005-.096.006-.093.01-.095.007-.09.012-.091.013-.085.014-.076.014-.07.015-.065.017-.054.019-.045.02-.034.02.027.017-.034-.005Z" />
    <path fill-rule="evenodd" clip-rule="evenodd" d="m20.33 7.808-.013.014-.205.706.034.005.207-.705-.013.015-.01-.035-.01.003-.003.01.012-.013Z" />
    <path fill-rule="evenodd" clip-rule="evenodd" d="m21.631 7.673-.099-.006-.1-.004h-.275l-.085.007-.084.003-.082.006-.08.006-.078.011-.075.012-.073.014-.07.016-.07.02-.067.023-.064.027.011.035.065-.026.067-.023.065-.022.07-.014.072-.015.073-.011.075-.013.079-.004.082-.007.084-.003h.361l.099.003h.1v-.035Z" />
    <path fill-rule="evenodd" clip-rule="evenodd" d="m22.635 8.665.014-.12v-.111l-.02-.102-.033-.097-.046-.091-.059-.082-.07-.073-.072-.064-.086-.055-.088-.053-.093-.042-.091-.034-.097-.026-.091-.022-.09-.014-.082-.006v.035l.082.007.085.014.09.02.092.026.09.036.088.04.088.048.08.054.072.065.064.067.059.076.041.085.031.092.022.096v.111l-.015.115.035.005Z" />
    <path fill-rule="evenodd" clip-rule="evenodd" d="m22.327 10.212.308-1.547-.035-.005-.307 1.546.034.006ZM21.601 9.444l-.006-.018-.01-.014-.02-.01-.03-.007-.033-.003-.039-.003h-.043l-.044.003-.046.004-.048.007-.047.006-.043.006-.045.008-.037.006-.039.01-.03.005-.02.004-.023.007-.03.01-.032.01-.037.02-.036.016-.04.02-.039.027-.037.026-.039.033-.032.032-.031.037-.026.042-.022.044-.017.046-.01.051-.003.1.016.079.023.057.036.045.043.03.05.016.05.01.049.003.088-.003.082-.01.076-.014.067-.021.065-.024.056-.026.053-.03.046-.034.04-.032.036-.039.033-.034.026-.039.02-.034.016-.035.01-.036.01-.033.01-.08.016-.085.011-.083.006-.073ZM27.633 10.457l.005-.067.024-.079.04-.071.05-.06.062-.05.07-.036.076-.023.082-.01.082.01.076.023.07.036.062.05.05.06.041.071.024.079.004.067h-.087l-.003-.053-.017-.064-.03-.059-.038-.05-.046-.04-.056-.03-.064-.02-.068-.007-.067.006-.065.02-.055.03-.047.042-.039.05-.028.058-.018.064-.006.053h-.084Z" />
    <path fill-rule="evenodd" clip-rule="evenodd" d="M27.896 10.457v-.176h.162l.034.004.032.006.024.008.02.012.015.017.011.017.006.022.003.02-.003.026-.006.02-.008.018-.006.006h-.122l.01-.003.02-.004.02-.004.013-.006.013-.01.004-.009.006-.014v-.02l-.003-.016-.004-.01-.01-.007-.009-.006-.014-.003-.015-.002h-.12v.114h-.073Zm-.263 0-.003.017.008.085.024.079.04.071.05.058.062.05.07.038.076.023.082.01.082-.01.076-.023.07-.039.062-.05.05-.057.041-.071.024-.079.008-.085-.004-.017h-.086l.003.017-.006.071-.017.064-.03.055-.039.05-.046.042-.056.032-.064.02-.068.007-.067-.006-.065-.02-.055-.033-.047-.042-.039-.05-.027-.055-.02-.064-.005-.071v-.017h-.084Z" />
    <path fill-rule="evenodd" clip-rule="evenodd" d="M27.896 10.457v.178h.073v-.146h.073l.088.146h.06l-.089-.146h.02l.02-.006.019-.006.014-.011.006-.01h-.122l-.016.004h-.073v-.003h-.073Z" />
    <path d="m27.63 10.474.01-.085.022-.08.04-.07.05-.061.062-.05.07-.036.076-.023.082-.01.082.01.076.023.07.036.062.05.05.062.04.07.023.079.01.085-.01.085-.023.079-.04.07-.05.059-.062.05-.07.038-.076.023-.082.01-.082-.01-.076-.023-.07-.039-.062-.05-.05-.058-.04-.07-.023-.079-.01-.085Zm.34.16h-.073v-.354h.16l.036.003.033.006.023.01.02.012.014.017.013.017.006.02.003.02-.003.027-.006.02-.01.017-.012.014-.014.012-.017.007-.02.006h-.02l.088.145h-.059l-.088-.145h-.073v.147h-.002Zm.072-.174.026-.006.02-.004.018-.006.014-.006.012-.01.006-.009.006-.014v-.02l-.003-.014-.006-.012-.01-.006-.008-.006-.014-.003-.014-.004h-.12v.118h.073v.002Zm0 .355.067-.006.065-.02.056-.033.046-.04.039-.05.03-.056.017-.065.006-.07-.006-.07-.017-.065-.03-.059-.039-.05-.046-.04-.056-.029-.065-.02-.067-.006-.067.006-.065.02-.055.03-.047.04-.039.05-.03.058-.016.066-.006.07.006.069.017.065.03.056.038.05.047.04.055.032.066.02.066.007Z" />
    <path fill-rule="evenodd" clip-rule="evenodd" d="M22.53 10.858h.825l.296-1.666.012-.064.017-.065.018-.063.023-.065.03-.064.035-.062.039-.059.046-.056.053-.05.059-.046.066-.043.076-.036.085-.03.093-.023.103-.017.114-.006h.073l.132-.753-.082.006-.08.01-.072.013-.07.022-.065.023-.06.03-.06.03-.055.036-.053.04-.05.042-.046.047-.048.046-.043.05-.044.056-.044.053-.04.058.088-.53h-.824l-.547 3.136Z" />
    <path d="M22.53 10.858h.825l.296-1.666.012-.064.017-.065.018-.063.023-.065.03-.064.035-.062.039-.059.046-.056.053-.05.059-.046.066-.043.076-.036.085-.03.093-.023.103-.017.114-.006h.073l.132-.753-.082.006-.08.01-.072.013-.07.022-.065.023-.06.03-.06.03-.055.036-.053.04-.05.042-.046.047-.048.046-.043.05-.044.056-.044.053-.04.058.088-.53h-.824l-.547 3.136Z" />
    <path fill-rule="evenodd" clip-rule="evenodd" d="M14.778 10.858h.84l.281-1.666.012-.064.014-.062.016-.062.02-.057.023-.059.03-.056.034-.052.042-.05.046-.043.053-.045.065-.035.07-.032.082-.026.09-.024.1-.015.114-.008h.009l.01.002.016.003h.014l.016.003.01.003.01.003h.003l.003-.012.008-.034.012-.053.014-.065.022-.076.02-.082.027-.083.026-.082.023-.054.03-.056.029-.056.03-.05.026-.044.02-.034.014-.02.006-.01h-.003l-.01-.003-.016-.003-.02-.003h-.02l-.024-.003-.022-.003h-.02l-.09.006-.082.01-.076.013-.071.019-.067.023-.062.03-.056.029-.052.034-.05.039-.046.043-.044.044-.045.05-.043.05-.04.055-.045.059-.044.058.106-.53h-.84l-.548 3.136Z" />
    <path d="M14.778 10.858h.84l.281-1.666.012-.064.014-.062.016-.062.02-.057.023-.059.03-.056.034-.052.042-.05.046-.043.053-.045.065-.035.07-.032.082-.026.09-.024.1-.015.114-.008h.009l.01.002.016.003h.014l.016.003.01.003.01.003h.003l.003-.012.008-.034.012-.053.014-.065.022-.076.02-.082.027-.083.026-.082.023-.054.03-.056.029-.056.03-.05.026-.044.02-.034.014-.02.006-.01h-.003l-.01-.003-.016-.003-.02-.003h-.02l-.024-.003-.022-.003h-.02l-.09.006-.082.01-.076.013-.071.019-.067.023-.062.03-.056.029-.052.034-.05.039-.046.043-.044.044-.045.05-.043.05-.04.055-.045.059-.044.058.106-.53h-.84l-.548 3.136Z" />
  </symbol>
  <symbol viewBox="0 0 22 22" id="icon-paypal-mob" xmlns="http://www.w3.org/2000/svg">
    <g clip-path="url(#ava)">
      <path d="M18.28 5.06a.458.458 0 0 0-.687.345c-.016.15-.042.3-.074.458-.897 4.073-2.7 6.054-5.51 6.054H7.882a.458.458 0 0 0-.448.366L6.06 18.728l-.246 1.641A1.375 1.375 0 0 0 7.16 22h2.76a1.368 1.368 0 0 0 1.333-1.044l1.115-4.456h2.391c2.823 0 4.773-2.25 5.493-6.337a4.79 4.79 0 0 0-1.97-5.104Z" />
      <path d="M17.417 1.634A4.823 4.823 0 0 0 13.842 0h-7.59a2.28 2.28 0 0 0-2.267 1.949L1.628 17.67a1.375 1.375 0 0 0 1.361 1.579h3.52a.458.458 0 0 0 .448-.367l1.297-6.05h3.759c3.261 0 5.416-2.28 6.406-6.783.04-.18.07-.36.092-.544a4.733 4.733 0 0 0-1.094-3.872Z" />
    </g>
    <defs>
      <clipPath id="ava">
        <path d="M0 0h22v22H0z" />
      </clipPath>
    </defs>
  </symbol>
  <symbol viewBox="0 0 19 19" id="icon-phone" xmlns="http://www.w3.org/2000/svg">
    <path d="M11.96 1.292a6.643 6.643 0 0 1 5.868 5.86M11.96 4.244a3.689 3.689 0 0 1 2.917 2.917" />
    <path clip-rule="evenodd" d="M6.417 12.582C.67 6.834 1.487 4.201 2.092 3.352 2.17 3.217 4.09.344 6.145 2.029c5.106 4.205-1.357 3.61 2.93 7.898 4.287 4.287 3.692-2.176 7.897 2.928 1.685 2.058-1.188 3.976-1.324 4.053-.848.607-3.482 1.424-9.23-4.325Z" />
  </symbol>
  <symbol viewBox="0 0 20 20" id="icon-photo" xmlns="http://www.w3.org/2000/svg">
    <path clip-rule="evenodd" d="M.75 10c0 6.937 2.313 9.25 9.25 9.25 6.937 0 9.25-2.313 9.25-9.25 0-6.937-2.313-9.25-9.25-9.25C3.063.75.75 3.063.75 10Z" />
    <path clip-rule="evenodd" d="M8.599 6.784a1.76 1.76 0 1 1-3.521.001 1.76 1.76 0 0 1 3.52 0Z" />
    <path d="M19.12 12.666c-.88-.906-2.127-2.737-4.416-2.737-2.289 0-2.339 4.038-4.675 4.038-2.337 0-3.278-1.37-4.8-.655-1.523.715-2.763 3.561-2.763 3.561" />
  </symbol>
  <symbol viewBox="0 0 12 16" id="icon-profile" xmlns="http://www.w3.org/2000/svg">
    <path fill-rule="evenodd" clip-rule="evenodd" d="M6 1.654a2.508 2.508 0 0 0-2.516 2.5c0 1.38 1.126 2.5 2.516 2.5 1.39 0 2.516-1.12 2.516-2.5S7.39 1.654 6 1.654Zm-3.677 2.5C2.323 2.136 3.969.5 6 .5s3.677 1.636 3.677 3.654S8.031 7.808 6 7.808 2.323 6.172 2.323 4.154ZM4.1 10.5a2.929 2.929 0 0 0-2.939 2.92c0 .084.016.144.032.179.014.03.026.037.036.043.45.244 1.716.704 4.771.704 3.055 0 4.32-.46 4.771-.704.01-.005.022-.014.036-.043a.434.434 0 0 0 .032-.18A2.929 2.929 0 0 0 7.9 10.5H4.1ZM0 13.42c0-2.25 1.835-4.074 4.1-4.074h3.8c2.264 0 4.1 1.824 4.1 4.073 0 .413-.15.954-.674 1.236-.693.375-2.18.845-5.326.845-3.147 0-4.633-.47-5.326-.845C.15 14.373 0 13.833 0 13.42Z" />
  </symbol>
  <symbol viewBox="0 0 16 16" id="icon-reports" xmlns="http://www.w3.org/2000/svg">
    <path d="m4.188 10.14 2.244-2.916 2.56 2.01 2.197-2.835" />
    <path clip-rule="evenodd" d="M13.75.762a1.441 1.441 0 1 1 .001 2.882 1.441 1.441 0 0 1 0-2.882Z" />
    <path d="M14.566 5.952c.1.671.146 1.427.146 2.275 0 5.204-1.734 6.938-6.938 6.938-5.202 0-6.937-1.734-6.937-6.938 0-5.202 1.735-6.937 6.937-6.937a15.7 15.7 0 0 1 2.238.14" />
  </symbol>
  <symbol viewBox="0 0 20 20" id="icon-search" xmlns="http://www.w3.org/2000/svg">
    <path d="M14.573 16.003c-3.998 3.183-9.585 2.303-12.545-1.349-2.856-3.525-2.677-8.61.421-11.83C5.651-.5 10.685-.944 14.335 1.785a8.903 8.903 0 0 1 2.92 3.724 8.83 8.83 0 0 1 .611 4.712c-.22 1.617-.866 3.057-1.916 4.402.085.055.175.095.24.16 1.155 1.15 2.305 2.302 3.46 3.451.273.272.409.59.328.972a.994.994 0 0 1-1.648.532c-.272-.244-.523-.514-.782-.772l-2.844-2.842c-.039-.038-.08-.073-.131-.12Zm1.387-7.016c.01-3.86-3.107-6.98-6.977-6.986A6.965 6.965 0 0 0 1.99 8.948a6.983 6.983 0 0 0 6.977 7.017c3.844.018 6.982-3.115 6.992-6.978Z" />
  </symbol>
  <symbol viewBox="0 0 13 13" id="icon-star" xmlns="http://www.w3.org/2000/svg">
    <path d="M10.2 7.95a.688.688 0 0 0-.2.606l.555 3.075a.675.675 0 0 1-.28.675.688.688 0 0 1-.732.05l-2.768-1.443a.706.706 0 0 0-.313-.082h-.17a.507.507 0 0 0-.168.056l-2.769 1.45a.73.73 0 0 1-.443.07.695.695 0 0 1-.557-.795l.557-3.075a.7.7 0 0 0-.2-.612L.455 5.738a.675.675 0 0 1-.168-.707.702.702 0 0 1 .556-.468l3.106-.451a.695.695 0 0 0 .55-.38L5.868.924a.65.65 0 0 1 .125-.169l.056-.043a.42.42 0 0 1 .1-.082l.069-.025.106-.043h.263a.7.7 0 0 1 .55.375L8.524 3.73c.1.205.294.347.519.38l3.106.452a.708.708 0 0 1 .569.468.679.679 0 0 1-.181.707L10.199 7.95Z" />
  </symbol>
  <symbol viewBox="0 0 77 12" id="icon-stars" xmlns="http://www.w3.org/2000/svg">
    <defs>
      <clipPath id="bcb">
        <path d="M0 0h77v12H0z" />
      </clipPath>
      <style>
      </style>
    </defs>
    <g id="bca">
      <path class="bcb" d="M10.2 7.95a.688.688 0 0 0-.2.606l.556 3.075a.675.675 0 0 1-.281.675.688.688 0 0 1-.731.05l-2.769-1.443a.706.706 0 0 0-.312-.082h-.17a.507.507 0 0 0-.169.056l-2.769 1.451a.73.73 0 0 1-.444.069.7.7 0 0 1-.556-.794l.556-3.075a.7.7 0 0 0-.2-.612L.455 5.738a.675.675 0 0 1-.168-.706.7.7 0 0 1 .556-.469l3.106-.451a.7.7 0 0 0 .55-.381L5.868.925a.651.651 0 0 1 .125-.169l.056-.043a.42.42 0 0 1 .1-.081l.069-.026.106-.043h.263a.7.7 0 0 1 .55.375l1.387 2.793a.7.7 0 0 0 .519.381l3.106.451a.708.708 0 0 1 .569.469.679.679 0 0 1-.181.706Z" transform="translate(-.25 -.438)" />
      <path class="bcb" d="M10.2 7.95a.688.688 0 0 0-.2.606l.556 3.075a.675.675 0 0 1-.281.675.688.688 0 0 1-.731.05l-2.769-1.443a.706.706 0 0 0-.312-.082h-.17a.507.507 0 0 0-.169.056l-2.769 1.451a.73.73 0 0 1-.444.069.7.7 0 0 1-.556-.794l.556-3.075a.7.7 0 0 0-.2-.612L.455 5.738a.675.675 0 0 1-.168-.706.7.7 0 0 1 .556-.469l3.106-.451a.7.7 0 0 0 .55-.381L5.868.925a.651.651 0 0 1 .125-.169l.056-.043a.42.42 0 0 1 .1-.081l.069-.026.106-.043h.263a.7.7 0 0 1 .55.375l1.387 2.793a.7.7 0 0 0 .519.381l3.106.451a.708.708 0 0 1 .569.469.679.679 0 0 1-.181.706Z" transform="translate(16.75 -.563)" />
      <path class="bcb" d="M10.2 7.95a.688.688 0 0 0-.2.606l.556 3.075a.675.675 0 0 1-.281.675.688.688 0 0 1-.731.05l-2.769-1.443a.706.706 0 0 0-.312-.082h-.17a.507.507 0 0 0-.169.056l-2.769 1.451a.73.73 0 0 1-.444.069.7.7 0 0 1-.556-.794l.556-3.075a.7.7 0 0 0-.2-.612L.455 5.738a.675.675 0 0 1-.168-.706.7.7 0 0 1 .556-.469l3.106-.451a.7.7 0 0 0 .55-.381L5.868.925a.651.651 0 0 1 .125-.169l.056-.043a.42.42 0 0 1 .1-.081l.069-.026.106-.043h.263a.7.7 0 0 1 .55.375l1.387 2.793a.7.7 0 0 0 .519.381l3.106.451a.708.708 0 0 1 .569.469.679.679 0 0 1-.181.706Z" transform="translate(32.75 -.563)" />
      <path class="bcb" d="M10.2 7.95a.688.688 0 0 0-.2.606l.556 3.075a.675.675 0 0 1-.281.675.688.688 0 0 1-.731.05l-2.769-1.443a.706.706 0 0 0-.312-.082h-.17a.507.507 0 0 0-.169.056l-2.769 1.451a.73.73 0 0 1-.444.069.7.7 0 0 1-.556-.794l.556-3.075a.7.7 0 0 0-.2-.612L.455 5.738a.675.675 0 0 1-.168-.706.7.7 0 0 1 .556-.469l3.106-.451a.7.7 0 0 0 .55-.381L5.868.925a.651.651 0 0 1 .125-.169l.056-.043a.42.42 0 0 1 .1-.081l.069-.026.106-.043h.263a.7.7 0 0 1 .55.375l1.387 2.793a.7.7 0 0 0 .519.381l3.106.451a.708.708 0 0 1 .569.469.679.679 0 0 1-.181.706Z" transform="translate(48.75 -.563)" />
      <path class="bcb" d="M10.2 7.95a.688.688 0 0 0-.2.606l.556 3.075a.675.675 0 0 1-.281.675.688.688 0 0 1-.731.05l-2.769-1.443a.706.706 0 0 0-.312-.082h-.17a.507.507 0 0 0-.169.056l-2.769 1.451a.73.73 0 0 1-.444.069.7.7 0 0 1-.556-.794l.556-3.075a.7.7 0 0 0-.2-.612L.455 5.738a.675.675 0 0 1-.168-.706.7.7 0 0 1 .556-.469l3.106-.451a.7.7 0 0 0 .55-.381L5.868.925a.651.651 0 0 1 .125-.169l.056-.043a.42.42 0 0 1 .1-.081l.069-.026.106-.043h.263a.7.7 0 0 1 .55.375l1.387 2.793a.7.7 0 0 0 .519.381l3.106.451a.708.708 0 0 1 .569.469.679.679 0 0 1-.181.706Z" transform="translate(64.249 -.563)" />
    </g>
  </symbol>
  <symbol viewBox="0 0 16 16" id="icon-support" xmlns="http://www.w3.org/2000/svg">
    <path clip-rule="evenodd" d="M8 14.75c-4.87 0-6.782-.346-7.092-2.098-.31-1.751 1.672-5.044 2.283-6.13C5.234 2.887 6.623 1.25 8 1.25c1.377 0 2.766 1.638 4.809 5.271.61 1.087 2.593 4.38 2.283 6.131-.309 1.752-2.221 2.098-7.092 2.098Z" />
    <path d="M8 5.375v2.921m-.003 2.625h.006" />
  </symbol>
  <symbol viewBox="0 0 66 80" id="icon-thank-you" xmlns="http://www.w3.org/2000/svg">
    <path d="M29.698 25.932a1.171 1.171 0 0 0 1.512-.678l.393-1.032h2.773l.388 1.028a1.172 1.172 0 1 0 2.192-.827l-2.707-7.175a1.332 1.332 0 0 0-1.249-.86c-.545 0-1.03.326-1.237.83l-.01.027-2.733 7.174c-.23.605.073 1.282.678 1.513Zm3.793-4.054h-.995l.5-1.312.495 1.312Zm5.839 4.131c.647 0 1.172-.525 1.172-1.172v-3.504l2.775 4.018c.334.482.895.687 1.43.52.543-.17.894-.672.894-1.291l-.068-7.031a1.172 1.172 0 0 0-1.172-1.161h-.011a1.172 1.172 0 0 0-1.16 1.183l.034 3.579-2.93-4.242a1.172 1.172 0 0 0-2.136.665v7.263c0 .648.525 1.173 1.172 1.173Zm8.918-.001a1.17 1.17 0 0 0 1.172-1.171V23.57l2.187 2.11a1.168 1.168 0 0 0 1.657-.03 1.172 1.172 0 0 0-.03-1.657l-3.044-2.937 2.766-2.541a1.172 1.172 0 1 0-1.587-1.726l-1.95 1.792V17.56a1.172 1.172 0 1 0-2.343 0v7.277c0 .647.525 1.171 1.172 1.171Zm-26.84 0c.647 0 1.172-.524 1.172-1.171v-2.592h2.692v2.592a1.172 1.172 0 1 0 2.344 0V17.56a1.172 1.172 0 1 0-2.344 0v2.342H22.58V17.56a1.172 1.172 0 1 0-2.344 0v7.277c0 .647.525 1.171 1.172 1.171Zm-2.757 5.632 2.133 3.266-.008 3.367a1.172 1.172 0 0 0 1.169 1.175h.003c.646 0 1.17-.523 1.172-1.17l.008-3.37 2.116-3.251a1.172 1.172 0 1 0-1.964-1.279l-1.325 2.035-1.341-2.054a1.172 1.172 0 1 0-1.963 1.281Zm18.077 4.366c0 1.194.566 2.16 1.682 2.874a3.612 3.612 0 0 0 1.971.568h.005a3.81 3.81 0 0 0 1.726-.4c1.3-.655 2.016-1.737 2.016-3.047V31a1.172 1.172 0 1 0-2.344 0v5.002c0 .305-.088.632-.727.953-.2.101-.42.15-.67.15h-.003a1.28 1.28 0 0 1-.712-.2c-.555-.354-.6-.626-.6-.898V31a1.172 1.172 0 1 0-2.345 0v5.007ZM13.763 18.732h.83v6.105a1.172 1.172 0 1 0 2.343 0v-6.105h.845a1.172 1.172 0 1 0 0-2.344h-4.018a1.172 1.172 0 1 0 0 2.344ZM30.63 29.828a4.816 4.816 0 0 0-4.81 4.81 4.816 4.816 0 0 0 4.81 4.81 4.816 4.816 0 0 0 4.81-4.81 4.816 4.816 0 0 0-4.81-4.81Zm0 7.276a2.47 2.47 0 0 1-2.466-2.466 2.47 2.47 0 0 1 2.466-2.467 2.47 2.47 0 0 1 2.467 2.467 2.47 2.47 0 0 1-2.466 2.466Z" />
    <path d="m63.797 28.073-3.45-3.593V9.464c0-2.09-1.7-3.79-3.79-3.79H42.294l-.01-.01-2.773-2.89A8.948 8.948 0 0 0 33 0c-2.48 0-4.792.985-6.51 2.775l-2.784 2.9H9.442c-2.09 0-3.789 1.7-3.789 3.79V24.48l-3.45 3.593A6.378 6.378 0 0 0 .418 32.51v43.7c0 2.09 1.7 3.79 3.79 3.79h57.584c2.09 0 3.79-1.7 3.79-3.79v-43.7a6.378 6.378 0 0 0-1.785-4.437Zm-1.69 1.624c.73.76 1.131 1.76 1.131 2.814v2.657l-2.891 3.012V27.864l1.76 1.833ZM28.18 4.397A6.624 6.624 0 0 1 33 2.345c1.836 0 3.548.73 4.82 2.054l1.225 1.277h-12.09l1.226-1.277ZM9.442 8.02h47.115c.798 0 1.446.648 1.446 1.445v31.157l-12.44 12.957-6.053-6.306A8.947 8.947 0 0 0 33 44.498c-2.48 0-4.793.985-6.51 2.774l-6.054 6.306-12.44-12.957V9.464c0-.797.65-1.445 1.446-1.445Zm9.37 47.252L2.762 71.989V38.552l16.05 16.719ZM2.762 32.51c0-1.055.402-2.054 1.132-2.814l1.76-1.833V38.18l-2.892-3.011V32.51Zm59.03 45.145H4.208a1.447 1.447 0 0 1-1.445-1.445v-.838L28.18 48.895A6.623 6.623 0 0 1 33 46.841c1.835 0 3.547.73 4.819 2.054l9.412 9.805a1.172 1.172 0 0 0 1.69-1.623L47.19 55.27l16.05-16.719V71.99L52.69 61.003A1.172 1.172 0 0 0 51 62.626l12.237 12.747v.837c0 .798-.648 1.446-1.446 1.446Z" />
  </symbol>
  <symbol viewBox="0 0 16 14" id="icon-twitter" xmlns="http://www.w3.org/2000/svg">
    <path d="M5.032 13.004c6.038 0 9.34-5.003 9.34-9.34 0-.143-.003-.284-.01-.425A6.681 6.681 0 0 0 16 1.54a6.549 6.549 0 0 1-1.885.517A3.295 3.295 0 0 0 15.559.24a6.58 6.58 0 0 1-2.085.797A3.283 3.283 0 0 0 7.88 4.031 9.32 9.32 0 0 1 1.115.6 3.28 3.28 0 0 0 2.13 4.983a3.26 3.26 0 0 1-1.487-.41v.042a3.284 3.284 0 0 0 2.633 3.218 3.286 3.286 0 0 1-1.483.056 3.287 3.287 0 0 0 3.067 2.28A6.587 6.587 0 0 1 0 11.53a9.293 9.293 0 0 0 5.032 1.475Z"  />
  </symbol>
  <symbol viewBox="0 0 19 14" id="icon-union" xmlns="http://www.w3.org/2000/svg">
    <path fill-rule="evenodd" clip-rule="evenodd" d="M15.165 4.43h.003-.003Zm-10.84-.073c2.593-.161 7.423-.161 10.017 0v.007c.063.633.088 1.477.088 2.655 0 1.163-.025 2.008-.086 2.646-2.648.105-7.373.105-10.021 0-.062-.632-.087-1.474-.087-2.646 0-1.178.025-2.022.088-2.655v-.007ZM15.241 9.61l-.005.001h.005ZM3.498 9.608H3.5h-.003ZM0 7.019c0 4.822.389 6.611 3.422 6.844 2.8.156 9.022.156 11.822 0 3.033-.155 3.422-2.022 3.422-6.844 0-4.822-.389-6.61-3.422-6.844-2.8-.233-9.022-.233-11.822 0C.39.408 0 2.197 0 7.019Zm3.498-2.588L3.5 4.43h-.003Zm6.284 4.308a1.923 1.923 0 1 1 0-3.44c1.417.709 1.417 2.731 0 3.44Z"  />
  </symbol>
</svg>